<?xml version="1.0" encoding="utf-8"?>
<!-- Generator: Adobe Illustrator 23.0.6, SVG Export Plug-In . SVG Version: 6.00 Build 0)  -->
<svg version="1.1" xmlns="http://www.w3.org/2000/svg" xmlns:xlink="http://www.w3.org/1999/xlink" x="0px" y="0px"
	 viewBox="0 0 500 500" style="enable-background:new 0 0 500 500;" xml:space="preserve">
<style type="text/css">
	.st0{fill:none;stroke:#fff;stroke-width:50;stroke-miterlimit:10;}
	.st1{fill:none;stroke:#fff;stroke-width:30;stroke-miterlimit:10;}
</style>
<g id="Layer_1">
	<path class="st0" d="M80.6,217.1l56.5,36.5L427,440.8L394.6,97.2l-6.3-67C252.4,42.2,149.8,104.5,80.6,217.1z"/>
	<path class="st1" d="M347,379.8c12.9-11.3,21-27.8,21-46.3c0-34-27.5-61.5-61.5-61.5c-29.9,0-54.8,21.3-60.3,49.5L347,379.8z"/>
	<path class="st1" d="M394.5,105.1C384,96.9,370.8,92,356.5,92c-34,0-61.5,27.5-61.5,61.5s27.5,61.5,61.5,61.5
		c18.8,0,35.6-8.4,46.9-21.7L394.5,105.1z"/>
</g>
<g id="Layer_2">
	<path class="st0" d="M149,228"/>
</g>
</svg>
